<?xml version="1.0" encoding="utf-8"?>
<!-- Generator: Adobe Illustrator 25.2.0, SVG Export Plug-In . SVG Version: 6.00 Build 0)  -->
<svg version="1.1" id="Layer_1" xmlns="http://www.w3.org/2000/svg" xmlns:xlink="http://www.w3.org/1999/xlink" x="0px" y="0px"
	 viewBox="0 0 2048 2048" style="enable-background:new 0 0 2048 2048;" xml:space="preserve">
<path fill="#000000" d="M1462.4,1329.6l-28.9,28.9c-119.4,119.4-276.2,179.1-433.1,179.1c-156.8,0-313.7-59.7-433.1-179.1l-28.9-28.9l-173.3,173.3
	l28.9,28.9c81.8,81.8,177.2,145.1,283.6,188.3c102.7,41.6,211.3,62.8,322.7,62.8c111.4,0,219.9-21.1,322.7-62.8
	c106.4-43.1,201.8-106.5,283.6-188.3l28.9-28.9L1462.4,1329.6z"/>
<path fill="#000000" d="M536.6,332.6v229.2h326v409.3v369c43.4,14,89.8,21.6,137.9,21.6c46.8,0,92-7.2,134.3-20.5v-362V561.9h14.3h297.3h17.9V332.6
	H536.6z"/>
</svg>
